<svg xmlns="http://www.w3.org/2000/svg" width="1024" height="1024" viewBox="0 0 1024 1024">
  <defs>
    <linearGradient id="bg" x1="0" y1="0" x2="1" y2="1">
      <stop offset="0" stop-color="#1f73e6"/>
      <stop offset="1" stop-color="#0aa894"/>
    </linearGradient>
    <linearGradient id="fd" x1="0" y1="0" x2="0" y2="1">
      <stop offset="0" stop-color="#ffd24a"/>
      <stop offset="1" stop-color="#f5a01e"/>
    </linearGradient>
  </defs>

  <rect x="16" y="16" width="992" height="992" rx="228" fill="url(#bg)"/>

  <!-- folder: variant C's size and position -->
  <path d="M180 356 Q180 300 236 300 H426 Q456 300 474 324 L498 356 H788 Q844 356 844 412 V774 Q844 830 788 830 H236 Q180 830 180 774 Z"
        fill="url(#fd)"/>

  <!-- badge: B's arrows, same size/position; circle shrunk to hug them -->
  <circle cx="736" cy="363" r="200" fill="#ffffff"/>
  <g fill="none" stroke="#1f73e6" stroke-width="48" stroke-linecap="round" stroke-linejoin="round">
    <path d="M736 330 V282"/>
    <path d="M670 282 L736 210 L802 282"/>
    <path d="M736 400 V448"/>
    <path d="M670 448 L736 516 L802 448"/>
  </g>
</svg>
